<?xml version="1.0" standalone="no"?>
<!DOCTYPE svg PUBLIC "-//W3C//DTD SVG 20010904//EN"
 "http://www.w3.org/TR/2001/REC-SVG-20010904/DTD/svg10.dtd">
<svg version="1.0" xmlns="http://www.w3.org/2000/svg"
 width="700.000000pt" height="700.000000pt" viewBox="0 0 700.000000 700.000000"
 preserveAspectRatio="xMidYMid meet">
<metadata>
Created by potrace 1.14, written by Peter Selinger 2001-2017
</metadata>
<g transform="translate(0.000000,700.000000) scale(0.100000,-0.100000)"
fill="#000000" stroke="none">
<path d="M3234 6990 c-1025 -86 -1930 -586 -2545 -1407 -360 -479 -585 -1049
-665 -1678 -25 -195 -25 -615 0 -810 125 -984 608 -1817 1393 -2404 787 -588
1801 -816 2773 -621 477 96 938 294 1330 573 168 120 278 214 446 382 296 295
490 562 670 925 507 1021 480 2249 -73 3239 -179 323 -364 563 -634 826 -552
537 -1250 868 -2024 961 -154 18 -529 26 -671 14z m471 -1141 c1096 -94 1955
-1027 1955 -2124 0 -491 -175 -925 -514 -1273 -174 -179 -378 -317 -597 -403
-119 -47 -118 -46 -53 -85 16 -9 13 -13 -25 -35 -27 -15 -50 -38 -62 -61 -11
-21 -21 -38 -23 -38 -2 0 -15 19 -29 43 -17 29 -39 49 -65 61 -38 17 -46 17
-150 2 -384 -56 -757 22 -1055 220 -420 280 -676 784 -629 1238 48 460 332
817 743 936 77 23 320 39 373 26 48 -12 31 -34 -31 -41 -238 -28 -428 -116
-579 -269 -321 -326 -353 -863 -77 -1269 245 -359 688 -540 1151 -471 531 79
965 463 1117 989 46 160 59 256 59 445 -1 236 -29 394 -111 605 l-35 90 -81
41 -82 42 -77 -39 c-88 -44 -84 -47 -66 61 l12 70 -63 64 -62 63 90 12 c140
19 135 40 -59 224 -99 94 -245 200 -371 270 -174 96 -453 184 -661 208 -103
12 -106 12 -128 -9 -13 -12 -31 -24 -41 -27 -10 -3 -30 -27 -45 -52 l-27 -46
-22 44 c-16 30 -35 50 -60 62 -25 12 -35 22 -31 33 6 16 -18 15 -169 -8 -726
-107 -1361 -580 -1695 -1263 -112 -229 -185 -505 -210 -792 -10 -124 -16 -153
-30 -153 -18 0 -23 45 -28 246 -5 234 5 354 45 534 205 933 965 1638 1943
1805 189 33 369 40 555 24z m-288 -798 c290 -64 504 -181 714 -391 276 -275
414 -597 412 -955 -1 -148 -14 -231 -58 -366 -115 -347 -406 -613 -747 -683
-76 -16 -271 -22 -315 -10 -44 12 -25 32 35 39 198 24 353 84 492 190 198 153
331 406 346 660 l6 90 -25 -39 -24 -39 -26 45 c-17 27 -40 51 -63 61 -40 20
-36 35 15 57 16 6 35 25 41 41 21 49 37 55 55 20 8 -17 17 -31 19 -31 8 0 -17
117 -40 192 -185 586 -799 899 -1439 733 -90 -24 -268 -94 -288 -114 -6 -6 6
-17 34 -31 l42 -22 -46 -26 c-31 -18 -52 -39 -63 -64 -9 -21 -20 -38 -24 -38
-4 0 -15 17 -24 39 -10 21 -28 43 -41 49 -20 9 -31 4 -86 -40 -212 -168 -360
-379 -452 -644 -19 -55 -42 -135 -50 -179 -30 -156 -30 -157 15 -70 l41 80 40
-81 40 -82 51 -6 c28 -4 66 -9 84 -13 l34 -6 -61 -61 -61 -61 15 -85 c8 -47
15 -86 15 -88 0 -1 -36 16 -80 38 l-81 41 -41 -23 -41 -23 7 -80 c27 -337 205
-716 463 -985 330 -344 767 -535 1278 -557 476 -20 997 159 1400 482 101 81
266 246 350 350 294 365 454 768 495 1241 10 124 16 154 30 154 16 0 22 -52
27 -260 5 -185 3 -235 -16 -360 -107 -741 -569 -1378 -1251 -1725 -489 -248
-1024 -329 -1520 -229 -307 61 -613 202 -875 403 -85 65 -255 231 -340 332
-331 396 -508 905 -492 1414 10 326 89 601 249 873 272 460 730 770 1267 857
127 21 437 13 558 -14z m1574 -1527 c22 -9 39 -20 39 -24 0 -4 -17 -15 -39
-24 -27 -13 -46 -32 -64 -64 l-25 -45 -21 41 c-13 26 -36 50 -61 64 -22 13
-40 25 -40 28 0 3 18 15 40 28 25 14 48 38 61 64 l21 41 25 -45 c18 -32 37
-51 64 -64z m-1138 -306 c9 -15 47 -44 91 -68 42 -23 78 -46 81 -50 3 -5 -32
-29 -77 -54 -81 -45 -84 -47 -127 -127 -50 -94 -45 -95 -103 18 -31 60 -38 67
-116 109 -45 25 -80 50 -76 55 3 5 29 21 57 35 85 43 101 59 147 144 l44 81
32 -58 c18 -32 39 -70 47 -85z m-1563 -719 c8 -19 29 -38 58 -53 l45 -23 -44
-24 c-27 -15 -52 -39 -64 -62 -11 -20 -23 -37 -27 -37 -4 0 -17 18 -28 40 -13
26 -34 47 -61 61 l-41 20 46 29 c27 17 53 44 63 65 19 39 32 35 53 -16z m532
-435 c21 -9 38 -20 38 -24 0 -4 -17 -15 -38 -24 -25 -11 -46 -32 -63 -63 l-26
-45 -24 43 c-15 27 -39 52 -62 64 -20 11 -37 22 -37 25 0 3 18 15 40 28 25 14
48 38 61 64 l21 41 26 -46 c18 -31 39 -52 64 -63z"/>
</g>
</svg>
