<?xml version="1.0" encoding="UTF-8"?>
<!DOCTYPE svg PUBLIC "-//W3C//DTD SVG 1.1//EN" "http://www.w3.org/Graphics/SVG/1.1/DTD/svg11.dtd">
<svg version="1.1" xmlns="http://www.w3.org/2000/svg" xmlns:xlink="http://www.w3.org/1999/xlink" x="0" y="0" width="70" height="70" viewBox="0, 0, 70, 70">
  <g id="Layer_1">
    <path d="M51.348,6.662 C51.158,6.473 50.849,6.473 50.66,6.664 L46.64,10.708 C46.45,10.899 46.451,11.207 46.642,11.397 C46.833,11.586 47.141,11.585 47.331,11.395 L51.35,7.351 C51.54,7.16 51.539,6.852 51.348,6.662" fill="#F0A845"/>
    <path d="M64.744,0.066 C64.553,-0.123 64.245,-0.122 64.055,0.069 L60.035,4.113 C59.846,4.303 59.847,4.612 60.037,4.801 C60.228,4.991 60.536,4.99 60.726,4.799 L64.746,0.755 C64.935,0.564 64.934,0.256 64.744,0.066" fill="#F0A845"/>
    <path d="M68.857,11.681 C68.666,11.491 68.358,11.492 68.168,11.683 L64.148,15.727 C63.959,15.917 63.96,16.226 64.15,16.415 C64.341,16.604 64.649,16.604 64.839,16.413 L68.859,12.369 C69.048,12.179 69.047,11.87 68.857,11.681" fill="#F0A845"/>
    <path d="M44.121,26.753 C43.953,26.586 43.768,26.437 43.596,26.275 C43.768,26.437 43.927,26.612 44.095,26.779 L44.121,26.753" fill="#0B0E16"/>
    <path d="M30.718,19.8 C31.28,19.9 31.832,20.024 32.38,20.16 C31.832,20.024 31.28,19.9 30.718,19.8" fill="#0B0E16"/>
    <path d="M37.699,22.134 C38.2,22.388 38.691,22.662 39.172,22.948 C38.69,22.662 38.201,22.389 37.699,22.134" fill="#0B0E16"/>
    <path d="M32.721,20.248 C34.447,20.701 36.101,21.328 37.66,22.115 C36.099,21.327 34.447,20.702 32.721,20.248" fill="#0B0E16"/>
    <path d="M13.483,38.411 C13.483,28.581 21.078,20.542 30.718,19.8 C29.269,19.543 27.785,19.385 26.261,19.385 C12.265,19.385 0.919,30.731 0.919,44.727 C0.919,51.696 3.735,58.005 8.287,62.587 L19.11,51.764 C15.641,48.371 13.483,43.646 13.483,38.411" fill="#CB3832"/>
    <path d="M39.415,23.096 C40.905,24.004 42.296,25.058 43.561,26.244 C42.294,25.057 40.905,24.004 39.415,23.096" fill="#0B0E16"/>
    <path d="M37.66,22.115 L37.699,22.134 L37.66,22.115" fill="#40445D"/>
    <path d="M39.172,22.948 L39.415,23.096 L39.172,22.948" fill="#40445D"/>
    <path d="M43.561,26.244 L43.596,26.275 L43.561,26.244" fill="#40445D"/>
    <path d="M32.38,20.16 C32.494,20.188 32.608,20.218 32.721,20.248 C32.608,20.218 32.494,20.188 32.38,20.16" fill="#40445D"/>
    <path d="M13.483,38.411 C13.483,43.646 15.641,48.371 19.11,51.764 L44.095,26.779 C43.927,26.612 43.768,26.438 43.596,26.275 L43.561,26.244 C42.296,25.059 40.905,24.004 39.415,23.097 L39.172,22.948 C38.691,22.663 38.2,22.389 37.699,22.135 L37.66,22.115 C36.101,21.328 34.447,20.701 32.721,20.248 C32.608,20.219 32.494,20.188 32.38,20.16 C31.832,20.024 31.28,19.9 30.718,19.8 C21.078,20.542 13.483,28.581 13.483,38.411" fill="#DF513D"/>
    <path d="M26.261,70.071 C40.258,70.071 51.604,58.724 51.604,44.728 C51.604,42.628 51.32,40.597 50.839,38.646 C50.711,48.856 42.406,57.096 32.166,57.096 C27.082,57.096 22.478,55.059 19.11,51.764 L8.287,62.588 C12.877,67.208 19.234,70.071 26.261,70.071" fill="#9B2A29"/>
    <path d="M44.913,27.613 C47.732,30.686 49.805,34.458 50.838,38.644 C49.805,34.458 47.737,30.689 44.913,27.613" fill="#40445D"/>
    <path d="M44.815,27.505 C44.583,27.255 44.363,26.993 44.121,26.753 L44.095,26.779 C44.337,27.019 44.583,27.255 44.815,27.505" fill="#40445D"/>
    <path d="M50.839,38.645 L50.838,38.643 L50.839,38.646 L50.839,38.645" fill="#40445D"/>
    <path d="M44.815,27.505 L44.913,27.612 L44.815,27.505" fill="#40445D"/>
    <path d="M19.11,51.764 C22.478,55.058 27.082,57.095 32.166,57.095 C42.406,57.095 50.711,48.855 50.839,38.646 L50.838,38.643 C49.805,34.457 47.732,30.685 44.913,27.612 L44.815,27.505 C44.583,27.255 44.337,27.019 44.095,26.779 L19.11,51.764" fill="#CB3832"/>
    <path d="M28.626,42.248 L44.095,26.779 C43.927,26.612 43.768,26.437 43.596,26.275 L43.561,26.244 C42.296,25.058 40.905,24.004 39.415,23.096 L39.172,22.948 C38.931,22.805 38.688,22.665 38.443,22.529 C38.688,22.665 38.931,22.805 39.172,22.948 C38.931,22.805 38.688,22.665 38.443,22.529 C38.198,22.393 37.95,22.261 37.699,22.134 L37.66,22.115 C37.636,22.103 37.611,22.091 37.587,22.079 C37.585,22.078 37.584,22.077 37.583,22.076 C36.046,21.307 34.418,20.694 32.721,20.248 C32.608,20.218 32.494,20.188 32.38,20.16 C32.045,20.077 31.708,19.998 31.368,19.927 C31.708,19.998 32.045,20.077 32.38,20.16 C32.045,20.076 31.708,19.998 31.368,19.927 L30.847,18.658 L37.165,21.132 L39.486,14.922 L44.063,23.549 L49.985,27.473 L52.356,39.103 L50.778,38.405 C49.726,34.314 47.683,30.63 44.913,27.612 C47.679,30.627 49.726,34.314 50.778,38.405 C49.726,34.314 47.679,30.627 44.913,27.612 L44.815,27.505 C44.583,27.255 44.337,27.019 44.095,26.779 L28.626,42.248 M44.815,27.505 L44.913,27.612 L44.815,27.505 M44.121,26.753 L44.095,26.779 C44.337,27.019 44.583,27.255 44.815,27.505 C44.583,27.255 44.363,26.993 44.121,26.753 M43.596,26.275 C43.768,26.437 43.927,26.612 44.095,26.779 L44.121,26.753 C43.953,26.586 43.768,26.437 43.596,26.275 M43.561,26.244 L43.596,26.275 L43.561,26.244 M39.172,22.948 L39.415,23.096 L39.172,22.948 M37.66,22.115 L37.699,22.134 L37.66,22.115 M32.38,20.16 C32.494,20.188 32.608,20.218 32.721,20.248 C32.608,20.218 32.494,20.188 32.38,20.16" fill="#6E4F27"/>
    <path d="M44.095,26.779 C43.927,26.612 43.768,26.437 43.596,26.275 C43.768,26.437 43.953,26.586 44.121,26.753 L44.095,26.779" fill="#6E4F27"/>
    <path d="M32.38,20.16 C32.045,20.077 31.708,19.998 31.368,19.927 C31.708,19.998 32.045,20.076 32.38,20.16" fill="#6E4F27"/>
    <path d="M39.172,22.948 C38.931,22.805 38.688,22.665 38.443,22.529 C38.688,22.665 38.931,22.805 39.172,22.948" fill="#6E4F27"/>
    <path d="M37.699,22.134 L37.66,22.115 L37.699,22.134" fill="#957446"/>
    <path d="M39.415,23.096 L39.172,22.948 L39.415,23.096" fill="#957446"/>
    <path d="M43.596,26.275 L43.561,26.244 L43.596,26.275" fill="#957446"/>
    <path d="M32.721,20.248 C32.608,20.218 32.494,20.188 32.38,20.16 C32.494,20.188 32.608,20.218 32.721,20.248" fill="#957446"/>
    <path d="M27.809,42.618 L34.174,31.676 L23.493,30.795 L33.468,25.037 L31.368,19.927 C31.708,19.998 32.045,20.077 32.38,20.16 C32.494,20.188 32.608,20.218 32.721,20.248 C34.447,20.701 36.101,21.328 37.66,22.115 L37.699,22.134 C37.95,22.261 38.198,22.393 38.443,22.529 C38.688,22.665 38.931,22.805 39.172,22.948 L39.415,23.096 C40.905,24.004 42.296,25.058 43.561,26.244 L43.596,26.275 C43.768,26.437 43.927,26.612 44.095,26.779 L28.626,42.248 L27.809,42.618" fill="#E67733"/>
    <path d="M50.778,38.406 L50.778,38.406 C49.726,34.315 47.679,30.628 44.913,27.613 C47.683,30.631 49.726,34.315 50.778,38.406" fill="#957446"/>
    <path d="M44.815,27.505 C44.583,27.255 44.337,27.019 44.095,26.779 L44.121,26.753 C44.363,26.993 44.583,27.255 44.815,27.505" fill="#957446"/>
    <path d="M44.913,27.612 L44.815,27.505 L44.913,27.612" fill="#957446"/>
    <path d="M28.626,42.249 L44.095,26.78 C44.337,27.02 44.583,27.256 44.815,27.506 L44.913,27.613 C47.679,30.628 49.726,34.315 50.778,38.406 L47.378,36.902 L46.387,41.322 L41.333,36.489 L28.626,42.249" fill="#DC6B2E"/>
    <path d="M42.612,24.866 L39.787,19.542 L38.269,23.605 L34.293,22.048 L35.856,25.852 L29.706,29.403 L37.329,30.031 L32.44,38.435 L41.718,34.229 L45.27,37.626 L46.032,34.229 L49.76,35.879 L48.281,28.623 L42.612,24.866" fill="#FFFFFE"/>
    <path d="M40.919,30.03 C38.474,27.584 39.054,22.467 43.13,18.392 C47.96,13.562 53.815,11.406 64.428,6.521 L40.919,30.03" fill="#ECA530"/>
    <path d="M40.919,30.03 C43.364,32.475 48.481,31.894 52.557,27.818 C57.387,22.988 59.542,17.133 64.428,6.521 L40.919,30.03" fill="#E2622D"/>
    <path d="M40.919,30.03 C39.192,28.303 39.375,24.917 41.927,22.364 C44.953,19.338 48.768,18.136 55.644,15.305 L40.919,30.03" fill="#54201E"/>
    <path d="M40.919,30.03 C42.646,31.756 46.032,31.574 48.584,29.021 C51.61,25.996 52.812,22.18 55.644,15.305 L40.919,30.03" fill="#3B1B18"/>
    <path d="M13.808,41.897 C11.227,41.578 9.229,39.377 9.229,36.709 C9.229,33.822 11.57,31.482 14.457,31.482 C14.575,31.482 14.691,31.486 14.807,31.493 C13.953,33.632 13.483,35.966 13.483,38.411 C13.483,39.603 13.594,40.768 13.808,41.897" fill="#A0302B"/>
    <path d="M14.457,41.938 C14.237,41.938 14.021,41.924 13.808,41.898 C13.594,40.769 13.483,39.604 13.483,38.412 C13.483,35.967 13.953,33.633 14.807,31.494 C17.531,31.675 19.685,33.941 19.685,36.71 C19.685,39.597 17.344,41.938 14.457,41.938" fill="#BB402E"/>
    <path d="M10.338,55.697 C8.212,55.697 6.489,53.973 6.489,51.847 C6.489,49.721 8.212,47.998 10.338,47.998 C12.464,47.998 14.187,49.721 14.187,51.847 C14.187,53.973 12.464,55.697 10.338,55.697" fill="#A0302B"/>
    <path d="M29.139,53.521 C27.808,53.521 26.73,52.442 26.73,51.112 C26.73,49.781 27.808,48.702 29.139,48.702 C30.47,48.702 31.549,49.781 31.549,51.112 C31.549,52.442 30.47,53.521 29.139,53.521" fill="#A0302B"/>
    <path d="M39.466,57.605 C38.477,57.605 37.592,57.163 36.997,56.465 C39.05,55.917 40.964,55.027 42.674,53.86 C42.699,54.023 42.712,54.189 42.712,54.359 C42.712,56.151 41.259,57.605 39.466,57.605" fill="#752222"/>
    <path d="M36.997,56.464 C36.513,55.897 36.22,55.162 36.22,54.358 C36.22,52.565 37.674,51.112 39.466,51.112 C41.089,51.112 42.434,52.303 42.674,53.859 C40.964,55.026 39.05,55.916 36.997,56.464" fill="#A0302B"/>
  </g>
</svg>
