<?xml version="1.0" encoding="UTF-8"?>
<!DOCTYPE svg PUBLIC "-//W3C//DTD SVG 1.1//EN" "http://www.w3.org/Graphics/SVG/1.1/DTD/svg11.dtd">
<svg version="1.1" xmlns="http://www.w3.org/2000/svg" xmlns:xlink="http://www.w3.org/1999/xlink" x="0" y="0" width="500" height="500" viewBox="0, 0, 500, 500">
  <g id="Layer_1">
    <g>
      <path d="M489.165,251.094 C490.305,379.773 374.617,452.825 244.151,453.981 C113.684,455.137 11.806,352.631 10.833,242.849 C9.86,133.066 109.846,22.049 240.312,20.893 C370.779,19.736 487.752,91.687 489.165,251.094" fill="#775095"/>
      <path d="M488.357,271.073 C478.941,282.25 468.474,292.615 457.462,302.159 C430.312,325.689 399.151,345.109 364.84,355.767 C328.776,366.97 290.372,368.216 252.641,366.646 C222.678,365.399 192.256,362.304 164.577,350.764 C119.407,331.931 85.746,292.13 63.364,248.609 C45.558,213.987 34.06,173.141 41.493,135.814 C21.631,168.809 10.505,205.896 10.833,242.849 C11.806,352.632 113.684,455.137 244.151,453.981 C367.702,452.886 477.982,387.304 488.357,271.073" fill="#54327C"/>
      <path d="M240.329,22.79 C179.336,23.33 121.557,48.077 77.631,92.47 C35.912,134.634 12.256,189.438 12.729,242.832 C13.199,295.793 37.801,348.935 80.228,388.632 C124.539,430.094 182.748,452.629 244.133,452.084 C310.118,451.5 370.749,432.595 414.858,398.852 C462.762,362.206 487.801,311.118 487.269,251.111 C486.617,177.539 460.564,117.417 411.926,77.245 C368.686,41.532 307.745,22.192 240.329,22.79 M244.167,455.878 C181.804,456.431 122.663,433.532 77.636,391.402 C34.455,350.999 9.416,296.859 8.937,242.866 C8.455,188.468 32.51,132.678 74.935,89.802 C119.57,44.692 178.296,19.546 240.295,18.996 C308.604,18.391 370.414,38.039 414.342,74.321 C463.87,115.228 490.399,176.35 491.061,251.078 C491.604,312.324 466.052,364.465 417.163,401.864 C372.406,436.104 310.969,455.286 244.167,455.878" fill="#FFFFFF"/>
      <path d="M289.527,43.842 C276.355,41.047 262.792,40.024 249.344,40.582 C235.395,41.161 205.406,38.385 198.134,54.257 C194.703,61.747 197.733,70.16 205.864,72.499 C217.965,75.98 231.555,73.411 243.95,75.302 C256.328,77.19 268.098,81.641 279.919,85.589 C291.161,89.342 303.256,93.27 315.252,93.13 C324.568,93.021 335.085,88.541 337.494,78.623 C343.191,55.166 305.13,47.154 289.527,43.842" fill="#FFFFFF"/>
      <path d="M183.935,60.015 C179.442,51.431 167.072,51.21 160.283,58.777 C155.114,64.546 159.618,74.275 165.001,78.328 C175.359,86.125 187.664,75.548 185.264,63.812 C184.976,62.403 184.523,61.138 183.935,60.015" fill="#FFFFFF"/>
      <path d="M121.563,406.522 C121.563,406.522 101.085,429.684 122.203,453.527 C143.322,477.371 211.217,481.034 258.202,478.378 C305.186,475.722 370.347,454.32 381.436,443.905 C392.524,433.49 386.705,408.443 375.151,398.669 C231.333,449.527 121.563,406.522 121.563,406.522" fill="#FF9E41"/>
      <path d="M121.563,406.522 C121.563,406.522 101.085,429.684 122.203,453.527 C130.071,462.41 144.436,468.489 161.788,472.487 C168.954,461.118 177.256,450.535 186.976,441.239 C194.288,434.246 202.473,428.037 211.257,422.926 C155.876,419.958 121.563,406.522 121.563,406.522" fill="#FF6641"/>
      <path d="M330.344,464.909 C355.232,457.727 375.663,449.327 381.436,443.905 C389.763,436.084 388.554,420.011 382.542,408.351 C371.58,431.982 353.052,452.205 330.344,464.909" fill="#FFCA6C"/>
      <path d="M122.177,408.77 C118.664,413.326 106.045,432.423 123.624,452.271 C143.432,474.634 208.445,479.29 258.095,476.485 C278.974,475.304 306.181,470.109 332.74,462.233 C355.828,455.385 374.876,447.464 380.137,442.522 C383.744,439.134 385.635,433.537 385.459,426.765 C385.206,417.016 380.836,406.543 374.727,400.829 C300.546,426.854 235.679,427.565 194.243,423.556 C154.567,419.717 128.188,410.923 122.177,408.77 M235.827,480.999 C219.818,481.14 199.87,480.513 180.241,477.769 C150.629,473.627 130.624,465.895 120.784,454.785 C98.808,429.972 119.926,405.51 120.142,405.266 C120.667,404.67 121.516,404.467 122.253,404.756 C122.527,404.863 150.081,415.49 194.762,419.794 C235.979,423.768 300.624,423.013 374.518,396.881 C375.154,396.655 375.86,396.786 376.376,397.222 C383.666,403.388 388.96,415.496 389.25,426.666 C389.455,434.535 387.141,441.148 382.734,445.287 C371.105,456.21 305.233,477.619 258.308,480.272 C252.556,480.597 244.811,480.919 235.827,480.999" fill="#000000"/>
      <path d="M414.27,161.7 C419.335,153.588 420.206,143.499 416.488,135.997 C412.45,127.851 402.831,122.369 392.553,122.356 C383.521,122.338 373.912,126.22 365.432,133.268 C358.34,139.163 352.66,146.455 346.457,155.502 C347.688,157.02 348.906,158.588 350.095,160.235 C350.733,161.119 350.533,162.352 349.65,162.99 C349.306,163.238 348.909,163.36 348.514,163.363 C347.896,163.369 347.285,163.084 346.896,162.545 C344.082,158.648 341.134,155.112 338.131,152.034 C322.836,136.357 293.266,125.934 259.034,124.152 C222.89,122.277 188.705,130.49 165.248,146.701 C160.714,149.834 156.447,153.616 152.567,157.941 C151.838,158.752 150.593,158.82 149.781,158.092 C148.97,157.364 148.902,156.117 149.63,155.305 C151.088,153.681 152.615,152.156 154.172,150.681 C148.203,140.976 142.765,133.18 135.76,126.781 C127.62,119.343 118.178,115.02 109.178,114.61 C98.915,114.152 89.048,119.166 84.632,127.114 C80.568,134.432 80.964,144.551 85.642,152.894 C90.776,162.046 99.661,167.725 106.211,170.879 C114.759,174.994 124.203,177.356 133.336,179.64 C133.474,179.675 133.604,179.724 133.726,179.784 C134.375,178.409 135.048,177.048 135.746,175.703 C136.25,174.735 137.441,174.36 138.407,174.86 C139.374,175.362 139.75,176.554 139.249,177.521 C120.278,214.068 120.258,263.003 120.623,275.942 C149.635,255.453 204.19,245.73 255.62,245.274 C256.333,245.268 257.043,245.263 257.755,245.261 C305.065,245.076 355.436,252.712 384.645,269.568 C383.106,259.517 375.711,216.072 358.2,181.388 C357.708,180.415 358.098,179.229 359.071,178.737 C360.044,178.247 361.23,178.635 361.722,179.61 C362.836,181.817 363.904,184.064 364.939,186.33 C365.077,186.267 365.221,186.214 365.376,186.183 C374.606,184.33 384.149,182.413 392.883,178.702 C399.572,175.859 408.714,170.603 414.27,161.7" fill="#AF93C0"/>
      <path d="M255.582,249.221 C219.814,249.538 185.636,254.208 159.12,262.419 C129.238,271.672 110.591,284.841 105.197,300.504 C92.135,338.423 93.849,368.677 110.292,390.426 C132.705,420.07 183.345,433.58 256.708,429.489 C339.597,424.87 385.007,410.135 403.947,381.712 C417.461,361.434 417.536,333.19 404.178,295.367 C392.855,263.305 320.348,248.964 257.771,249.207 C257.041,249.209 256.31,249.215 255.582,249.221" fill="#D9C7E7"/>
      <path d="M386.933,273.443 C385.951,273.451 385.095,272.726 384.962,271.728 C384.895,271.222 378.033,220.67 358.199,181.388 C357.707,180.415 358.097,179.229 359.07,178.738 C360.041,178.246 361.229,178.636 361.721,179.61 C381.862,219.499 388.806,270.698 388.873,271.211 C389.017,272.291 388.258,273.283 387.177,273.426 C387.095,273.437 387.014,273.442 386.933,273.443" fill="#000000"/>
      <path d="M348.514,163.363 C347.896,163.368 347.285,163.084 346.896,162.545 C344.076,158.64 341.127,155.104 338.131,152.035 C322.836,136.357 293.266,125.934 259.034,124.153 C222.879,122.271 188.703,130.49 165.248,146.701 C160.714,149.834 156.447,153.616 152.567,157.941 C151.838,158.752 150.593,158.82 149.781,158.091 C148.97,157.364 148.903,156.116 149.63,155.305 C153.716,150.751 158.216,146.763 163.004,143.453 C187.165,126.758 222.243,118.286 259.238,120.211 C294.436,122.043 324.985,132.909 340.956,149.278 C344.087,152.487 347.162,156.173 350.094,160.234 C350.733,161.118 350.533,162.351 349.65,162.989 C349.307,163.237 348.909,163.359 348.514,163.363" fill="#000000"/>
      <path d="M118.798,281.289 C117.756,281.298 116.878,280.491 116.812,279.44 C116.775,278.84 113.301,218.944 135.746,175.703 C136.249,174.737 137.439,174.361 138.407,174.861 C139.374,175.363 139.751,176.554 139.249,177.521 C117.315,219.776 120.714,278.603 120.751,279.193 C120.819,280.28 119.993,281.217 118.906,281.285 C118.87,281.287 118.833,281.289 118.798,281.289" fill="#000000"/>
      <path d="M140.872,338.787 C139.957,338.795 139.129,338.16 138.927,337.228 C138.7,336.162 139.378,335.113 140.443,334.884 C144.358,334.043 148.406,333.172 151.703,331.062 C155.053,328.917 157.072,325.53 156.846,322.431 C156.767,321.344 157.585,320.4 158.671,320.32 C159.818,320.242 160.703,321.06 160.783,322.145 C161.181,327.633 157.453,332.066 153.832,334.385 C149.933,336.881 145.332,337.87 141.271,338.743 C141.138,338.771 141.004,338.786 140.872,338.787" fill="#000000"/>
      <path d="M259.341,384.545 C258.585,384.552 257.832,384.552 257.076,384.547 C216.67,384.226 176.852,365.716 150.562,335.033 C149.853,334.205 149.949,332.96 150.776,332.251 C151.604,331.541 152.849,331.638 153.558,332.465 C179.116,362.294 217.826,380.289 257.107,380.6 C296.346,380.928 335.378,363.534 361.407,334.114 C362.128,333.298 363.375,333.222 364.192,333.943 C365.008,334.666 365.084,335.913 364.362,336.729 C338.09,366.425 298.974,384.194 259.341,384.545" fill="#000000"/>
      <path d="M373.008,341.074 C368.907,341.11 364.833,339.854 361.469,337.46 C357.225,334.441 354.323,329.759 353.503,324.616 C353.332,323.54 354.065,322.528 355.142,322.357 C356.212,322.188 357.228,322.918 357.4,323.995 C358.045,328.039 360.421,331.87 363.758,334.245 C367.094,336.619 371.489,337.611 375.523,336.893 C376.589,336.702 377.62,337.416 377.811,338.49 C378.002,339.563 377.287,340.587 376.213,340.778 C375.151,340.966 374.078,341.064 373.008,341.074" fill="#000000"/>
      <path d="M255.583,249.221 C219.815,249.538 185.637,254.208 159.12,262.419 C129.238,271.672 110.591,284.841 105.196,300.504 C92.135,338.424 93.85,368.677 110.292,390.426 C132.705,420.07 183.336,433.58 256.708,429.489 C339.596,424.87 385.006,410.135 403.947,381.712 C417.461,361.434 417.535,333.19 404.177,295.366 C392.856,263.305 320.348,248.963 257.771,249.207 C257.041,249.21 256.311,249.214 255.583,249.221 M234.807,434.162 C171.237,434.726 128.347,420.848 107.144,392.805 C89.86,369.944 87.949,338.457 101.464,299.219 L103.331,299.861 L101.464,299.219 C114.045,262.697 187.576,245.877 255.62,245.274 C256.334,245.268 257.043,245.263 257.755,245.26 C323.823,245.004 395.869,259.991 407.899,294.052 C421.699,333.128 421.482,362.518 407.231,383.901 C387.534,413.459 341.178,428.735 256.928,433.43 C249.297,433.855 241.921,434.098 234.807,434.162" fill="#000000"/>
      <path d="M169.541,288.839 C179.446,280.617 194.738,309.338 186.904,314.292 C179.071,319.245 158.983,297.603 169.541,288.839" fill="#000000"/>
      <path d="M338.186,288.136 C329.943,278.247 309.678,303.703 316.478,310 C323.278,316.297 346.972,298.675 338.186,288.136" fill="#000000"/>
      <path d="M179.033,212.168 C178.221,199.205 185.128,188.222 194.461,187.638 C203.794,187.052 212.019,197.087 212.832,210.05 C213.644,223.013 206.736,233.995 197.403,234.58 C188.07,235.165 179.846,225.131 179.033,212.168" fill="#000000"/>
      <path d="M173.788,196.594 C174.488,191.577 179.123,188.078 184.14,188.779 C189.156,189.48 192.655,194.115 191.955,199.131 C191.254,204.148 186.619,207.647 181.602,206.946 C176.585,206.246 173.087,201.611 173.788,196.594" fill="#FFFFFF"/>
      <path d="M282.611,211.177 C281.798,198.214 288.706,187.231 298.039,186.647 C307.372,186.062 315.597,196.096 316.409,209.059 C317.221,222.022 310.314,233.004 300.981,233.589 C291.648,234.174 283.423,224.139 282.611,211.177" fill="#000000"/>
      <path d="M277.365,195.603 C278.066,190.586 282.701,187.087 287.718,187.788 C292.735,188.489 296.233,193.124 295.533,198.141 C294.832,203.158 290.197,206.656 285.18,205.955 C280.163,205.255 276.664,200.619 277.365,195.603" fill="#FFFFFF"/>
      <path d="M132.876,183.528 C132.712,183.53 132.546,183.51 132.378,183.469 C123.056,181.137 113.416,178.727 104.499,174.435 C94.373,169.559 86.662,162.778 82.201,154.824 C76.785,145.168 76.396,133.816 81.183,125.197 C86.307,115.972 97.622,110.131 109.36,110.668 C119.278,111.12 129.6,115.807 138.422,123.866 C145.846,130.65 151.512,138.796 157.735,148.939 C158.305,149.868 158.015,151.083 157.086,151.653 C156.157,152.221 154.942,151.933 154.373,151.002 C148.323,141.144 142.843,133.252 135.76,126.779 C127.619,119.342 118.179,115.021 109.179,114.61 C98.921,114.159 89.047,119.167 84.633,127.114 C80.567,134.432 80.964,144.551 85.642,152.894 C90.776,162.045 99.661,167.725 106.211,170.879 C114.764,174.997 124.206,177.357 133.336,179.64 C134.394,179.904 135.036,180.975 134.772,182.032 C134.549,182.923 133.754,183.52 132.876,183.528" fill="#000000"/>
      <path d="M365.779,190.092 C364.852,190.1 364.019,189.45 363.829,188.506 C363.615,187.438 364.308,186.398 365.376,186.184 C374.605,184.33 384.149,182.413 392.883,178.702 C399.573,175.86 408.714,170.602 414.27,161.7 C419.336,153.588 420.206,143.498 416.488,135.997 C412.45,127.851 402.832,122.37 392.553,122.356 C383.582,122.32 373.912,126.22 365.431,133.267 C358.053,139.402 352.209,147.028 345.705,156.592 C345.092,157.494 343.865,157.726 342.964,157.114 C342.063,156.501 341.829,155.274 342.442,154.372 C349.134,144.532 355.175,136.662 362.909,130.232 C372.099,122.595 382.657,118.373 392.559,118.409 C404.299,118.425 415.337,124.788 420.024,134.244 C424.403,143.078 423.48,154.4 417.618,163.79 C412.79,171.527 404.77,177.939 394.426,182.334 C385.321,186.203 375.577,188.16 366.153,190.053 C366.027,190.078 365.903,190.091 365.779,190.092" fill="#000000"/>
      <path d="M177.084,235.307 C177.166,244.61 166.419,252.247 153.079,252.365 C139.739,252.483 128.859,245.038 128.776,235.735 C128.694,226.432 139.441,218.795 152.781,218.676 C166.121,218.558 177.002,226.004 177.084,235.307" fill="#FF849F"/>
      <path d="M369.681,233.6 C369.763,242.902 359.017,250.54 345.676,250.658 C332.336,250.777 321.456,243.331 321.373,234.028 C321.291,224.725 332.038,217.088 345.378,216.969 C358.718,216.852 369.599,224.297 369.681,233.6" fill="#FF849F"/>
      <path d="M403.947,381.712 C414.229,366.284 416.722,346.238 411.448,320.877 C408.445,341.26 401.036,363.28 381.285,379.704 C343.423,411.189 231.641,422.35 164.106,405.15 C117.291,393.226 102.893,350.78 98.463,325.854 C93.755,352.114 97.698,373.767 110.292,390.426 C132.705,420.07 183.345,433.581 256.708,429.489 C339.597,424.87 385.007,410.135 403.947,381.712" fill="#B5AAD3"/>
      <path d="M139.049,159.998 C146.403,151.209 118.309,115.048 102.57,132.351 C86.832,149.654 124.582,177.289 139.049,159.998" fill="#FF849F"/>
      <path d="M360.413,165.293 C354.219,155.652 386.621,123.296 400.068,142.434 C413.516,161.572 372.6,184.261 360.413,165.293" fill="#FF849F"/>
      <path d="M412.389,130.335 C407.498,125.414 400.21,122.366 392.553,122.356 C383.522,122.339 373.912,126.22 365.433,133.268 C358.34,139.163 352.66,146.456 346.457,155.502 C346.934,156.09 347.407,156.694 347.88,157.299 C353.098,149.574 378.898,114.919 412.389,130.335" fill="#D2B4DD"/>
      <path d="M108.184,120.223 C131.361,120.563 147.963,145.499 152.219,152.59 C152.864,151.945 153.513,151.305 154.172,150.681 C148.204,140.976 142.766,133.18 135.76,126.78 C127.62,119.342 118.179,115.02 109.178,114.609 C98.915,114.152 89.048,119.167 84.632,127.114 C84.203,127.888 83.833,128.7 83.503,129.531 L81.845,138.035 C81.844,138.092 81.847,138.15 81.847,138.208 C84.257,130.714 90.752,119.967 108.184,120.223" fill="#D2B4DD"/>
      <path d="M338.131,152.034 C322.835,136.356 293.266,125.934 259.034,124.152 C222.889,122.276 188.705,130.49 165.247,146.701 C160.713,149.834 156.447,153.616 152.567,157.941 C152.567,157.941 182.637,129.099 244.93,128.546 C298.622,128.07 335.509,152.757 344.678,159.587 C342.547,156.846 340.354,154.313 338.131,152.034" fill="#D2B4DD"/>
    </g>
  </g>
</svg>
