<?xml version="1.0" encoding="UTF-8"?>
<!DOCTYPE svg PUBLIC "-//W3C//DTD SVG 1.1//EN" "http://www.w3.org/Graphics/SVG/1.1/DTD/svg11.dtd">
<svg version="1.1" xmlns="http://www.w3.org/2000/svg" xmlns:xlink="http://www.w3.org/1999/xlink" x="0" y="0" width="70" height="70" viewBox="0, 0, 70, 70">
  <g id="Layer_1">
    <path d="M19.412,26.971 C19.412,15.474 28.296,6.07 39.571,5.203 C37.875,4.902 36.14,4.717 34.358,4.717 C17.988,4.717 4.716,17.988 4.716,34.359 C4.716,42.51 8.01,49.889 13.335,55.248 L25.994,42.588 C21.937,38.621 19.412,33.094 19.412,26.971" fill="#44609D"/>
    <path d="M19.412,26.971 C19.412,33.094 21.937,38.621 25.994,42.588 L55.217,13.365 C55.021,13.17 54.835,12.966 54.633,12.776 L54.592,12.74 C53.112,11.352 51.486,10.12 49.743,9.058 C49.649,9 49.554,8.942 49.459,8.885 C48.896,8.55 48.323,8.23 47.736,7.933 L47.691,7.911 C45.867,6.99 43.932,6.257 41.914,5.726 C41.781,5.691 41.649,5.657 41.515,5.624 C40.875,5.464 40.228,5.32 39.571,5.203 C28.296,6.07 19.412,15.474 19.412,26.971" fill="#6895C2"/>
    <path d="M34.358,64 C50.729,64 64,50.729 64,34.359 C64,31.902 63.668,29.528 63.105,27.245 C62.956,39.187 53.242,48.824 41.265,48.824 C35.319,48.824 29.934,46.442 25.994,42.588 L13.335,55.248 C18.704,60.651 26.139,64 34.358,64" fill="#284D89"/>
    <path d="M25.994,42.588 C29.934,46.442 35.319,48.824 41.265,48.824 C53.242,48.824 62.956,39.187 63.105,27.245 L63.104,27.242 C61.895,22.346 59.472,17.935 56.174,14.34 L56.06,14.215 C55.788,13.922 55.5,13.646 55.217,13.365 L25.994,42.588" fill="#44609D"/>
    <path d="M30.257,31.095 C30.257,32.606 29.031,33.831 27.52,33.831 L11.304,33.831 C9.792,33.831 8.567,32.606 8.567,31.095 C8.567,29.583 9.792,28.358 11.304,28.358 L27.52,28.358 C29.031,28.358 30.257,29.583 30.257,31.095" fill="#6895C2"/>
    <path d="M38.667,20.372 C38.667,21.883 37.442,23.108 35.931,23.108 L19.714,23.108 C18.203,23.108 16.978,21.883 16.978,20.372 C16.978,18.861 18.203,17.636 19.714,17.636 L35.931,17.636 C37.442,17.636 38.667,18.861 38.667,20.372" fill="#44609D"/>
    <path d="M46.226,35.989 C46.226,37.5 45.001,38.725 43.49,38.725 L27.273,38.725 C25.762,38.725 24.537,37.5 24.537,35.989 C24.537,34.477 25.762,33.252 27.273,33.252 L43.49,33.252 C45.001,33.252 46.226,34.477 46.226,35.989" fill="#6895C2"/>
    <path d="M37.315,53.177 C37.315,54.321 36.388,55.248 35.244,55.248 L22.976,55.248 C21.832,55.248 20.905,54.321 20.905,53.177 C20.905,52.034 21.832,51.107 22.976,51.107 L35.244,51.107 C36.388,51.107 37.315,52.034 37.315,53.177" fill="#44609D"/>
    <path d="M53.796,35.989 C53.796,37.5 52.57,38.725 51.059,38.725 C49.548,38.725 48.323,37.5 48.323,35.989 C48.323,34.477 49.548,33.252 51.059,33.252 C52.57,33.252 53.796,34.477 53.796,35.989" fill="#6895C2"/>
  </g>
</svg>
