<?xml version="1.0" encoding="UTF-8"?>
<!DOCTYPE svg PUBLIC "-//W3C//DTD SVG 1.1//EN" "http://www.w3.org/Graphics/SVG/1.1/DTD/svg11.dtd">
<svg version="1.1" xmlns="http://www.w3.org/2000/svg" xmlns:xlink="http://www.w3.org/1999/xlink" x="0" y="0" width="70" height="70" viewBox="0, 0, 70, 70">
  <g id="Layer_1">
    <path d="M35,69.993 C15.674,69.993 0.007,54.326 0.007,35 C0.007,15.674 15.674,0.007 35,0.007 C54.326,0.007 69.993,15.674 69.993,35 C69.993,54.326 54.326,69.993 35,69.993 M35,5.563 C18.743,5.563 5.563,18.743 5.563,35 C5.563,51.258 18.743,64.437 35,64.437 C51.258,64.437 64.437,51.258 64.437,35 C64.437,18.743 51.258,5.563 35,5.563" fill="#151726"/>
    <path d="M35,64.437 C18.743,64.437 5.563,51.258 5.563,35 C5.563,18.743 18.743,5.563 35,5.563 C51.258,5.563 64.437,18.743 64.437,35 C64.437,51.258 51.258,64.437 35,64.437" fill="#292B3B"/>
    <path d="M58.275,32.472 C59.391,40.284 56.189,48.055 50.1,53.063 C44.102,57.997 35.506,60.046 28.045,57.558 C19.506,54.71 13.521,46.619 13.33,37.612 C13.205,31.774 15.864,26.136 20.573,22.626 C24.942,19.368 30.913,18.153 36.109,19.97 C42.174,22.091 46.631,28.763 45.286,35.238 C44.73,37.908 43.334,40.262 41.097,41.873 C39.686,42.89 38.04,43.507 36.307,43.66 C35.604,43.722 34.919,43.673 34.22,43.594 C33.868,43.554 33.822,43.152 34.215,43.128 C41.484,42.701 45.024,35.156 41.778,28.937 C38.937,23.495 32.512,21.726 26.998,23.755 C18.929,26.728 16.014,35.812 19.009,43.453 C22.024,51.143 29.653,55.176 37.654,54.589 C46.19,53.747 53.376,47.989 56.444,40.051 C57.022,38.325 57.479,36.603 57.682,34.788 C57.721,34.447 57.757,31.642 58.275,32.472" fill="#AE7DAA"/>
    <path d="M11.726,37.528 C10.609,29.716 13.812,21.945 19.901,16.937 C25.898,12.004 34.494,9.954 41.956,12.442 C50.494,15.29 56.479,23.381 56.671,32.389 C56.795,38.227 54.136,43.864 49.428,47.375 C45.058,50.633 39.087,51.848 33.892,50.031 C27.827,47.91 23.369,41.238 24.715,34.762 C25.27,32.093 26.667,29.739 28.904,28.127 C30.314,27.111 31.96,26.493 33.692,26.34 C34.396,26.278 35.082,26.327 35.781,26.406 C36.132,26.447 36.178,26.848 35.785,26.872 C28.517,27.299 24.977,34.845 28.222,41.063 C31.063,46.506 37.489,48.274 43.002,46.245 C51.071,43.272 53.986,34.189 50.991,26.547 C47.976,18.858 40.347,14.825 32.346,15.412 C23.811,16.253 16.625,22.012 13.557,29.949 C12.978,31.675 12.522,33.398 12.318,35.213 C12.28,35.553 12.244,38.359 11.726,37.528" fill="#6895C2"/>
    <path d="M18.729,37.985 L20.297,38.809 L19.997,37.062 L21.266,35.825 L19.513,35.57 L18.729,33.981 L17.944,35.57 L16.19,35.825 L17.459,37.062 L17.16,38.809 L18.729,37.985" fill="#FFFFFE"/>
    <path d="M49.024,24.806 L50.593,25.631 L50.294,23.884 L51.562,22.647 L49.808,22.392 L49.024,20.803 L48.24,22.392 L46.486,22.647 L47.755,23.884 L47.455,25.631 L49.024,24.806" fill="#FFFFFE"/>
    <path d="M38.679,38.1 L40.384,39.033 L38.679,39.966 L37.747,41.671 L36.814,39.966 L35.108,39.033 L36.814,38.1 L37.747,36.395 L38.679,38.1" fill="#FFFFFE"/>
    <path d="M34.557,15.032 L35.409,15.498 L34.557,15.964 L34.091,16.817 L33.624,15.964 L32.772,15.498 L33.624,15.032 L34.091,14.178 L34.557,15.032" fill="#FFFFFE"/>
    <path d="M44.314,49.984 L45.166,50.45 L44.314,50.916 L43.847,51.77 L43.381,50.916 L42.528,50.45 L43.381,49.984 L43.847,49.131 L44.314,49.984" fill="#FFFFFE"/>
    <path d="M49.491,34.534 L50.343,35 L49.491,35.466 L49.024,36.32 L48.558,35.466 L47.705,35 L48.558,34.534 L49.024,33.681 L49.491,34.534" fill="#FFFFFE"/>
    <path d="M27.802,49.13 L28.654,49.597 L27.802,50.063 L27.336,50.916 L26.869,50.063 L26.017,49.597 L26.869,49.13 L27.336,48.277 L27.802,49.13" fill="#FFFFFE"/>
    <path d="M23.052,45.304 L23.905,45.77 L23.052,46.236 L22.586,47.089 L22.12,46.236 L21.266,45.77 L22.12,45.304 L22.586,44.451 L23.052,45.304" fill="#FFFFFE"/>
    <path d="M25.165,24.568 L26.017,25.035 L25.165,25.501 L24.698,26.354 L24.232,25.501 L23.379,25.035 L24.232,24.568 L24.698,23.716 L25.165,24.568" fill="#FFFFFE"/>
    <path d="M42.995,32.772 L43.847,33.239 L42.995,33.705 L42.528,34.558 L42.062,33.705 L41.209,33.239 L42.062,32.772 L42.528,31.919 L42.995,32.772" fill="#FFFFFE"/>
  </g>
</svg>
