<?xml version="1.0" encoding="UTF-8"?>
<!DOCTYPE svg PUBLIC "-//W3C//DTD SVG 1.1//EN" "http://www.w3.org/Graphics/SVG/1.1/DTD/svg11.dtd">
<svg version="1.1" xmlns="http://www.w3.org/2000/svg" xmlns:xlink="http://www.w3.org/1999/xlink" x="0" y="0" width="70" height="70" viewBox="0, 0, 70, 70">
  <defs>
    <clipPath id="Clip_1">
      <path d="M36.442,37.412 C34.981,37.412 33.695,36.477 33.245,35.086 C32.958,34.2 33.061,33.28 33.458,32.51 L34.102,32.51 C33.651,33.196 33.505,34.072 33.777,34.913 C34.161,36.098 35.26,36.852 36.442,36.852 C36.728,36.852 37.019,36.807 37.306,36.714 C39.073,36.142 40.711,34.577 41.771,32.51 L42.394,32.51 C41.275,34.833 39.455,36.607 37.479,37.247 C37.141,37.356 36.793,37.412 36.442,37.412 z"/>
    </clipPath>
  </defs>
  <g id="Layer_1">
    <path d="M9.569,67.229 L8.304,66.122 L30.775,40.443 L32.04,41.55 L9.569,67.229" fill="#BFBFBA"/>
    <path d="M63.612,67.229 L41.142,41.55 L42.406,40.443 L64.877,66.122 L63.612,67.229" fill="#BFBFBA"/>
    <path d="M35.75,40.36 L37.431,40.36 L37.431,66.676 L35.75,66.676 z" fill="#BFBFBA"/>
    <path d="M30.707,32.51 L42.473,32.51 L42.473,38.417 L30.707,38.417 z" fill="#6895C2"/>
    <g clip-path="url(#Clip_1)">
      <path d="M32.958,32.51 L42.394,32.51 L42.394,37.412 L32.958,37.412 z" fill="#4A7AB0"/>
    </g>
    <path d="M29.116,38.417 L44.065,38.417 L44.065,42.304 L29.116,42.304 z" fill="#44609D"/>
    <path d="M36.442,36.852 C35.26,36.852 34.161,36.098 33.777,34.913 C33.301,33.444 34.105,31.867 35.572,31.387 C35.759,31.309 36.596,30.693 37.098,29.207 C37.596,27.738 38.006,24.563 35.157,19.81 C34.363,18.482 34.795,16.762 36.122,15.967 C37.449,15.172 39.169,15.604 39.965,16.931 C44.098,23.835 43.188,28.935 42.279,31.36 C41.292,33.989 39.387,36.04 37.306,36.714 C37.019,36.807 36.728,36.852 36.442,36.852" fill="#959692"/>
    <path d="M37.448,26.551 L37.444,26.55 C37.424,26.038 37.36,25.473 37.232,24.855 L37.237,24.857 C37.365,25.475 37.428,26.04 37.448,26.551 M36.578,22.676 C36.501,22.483 36.421,22.287 36.334,22.086 L36.336,22.08 C36.423,22.281 36.504,22.477 36.58,22.67 L36.578,22.676" fill="#0D0F14"/>
    <path d="M42.897,28.937 L37.448,26.551 C37.428,26.04 37.365,25.475 37.237,24.857 L37.821,25.112 L43.04,27.397 C43.02,27.948 42.97,28.462 42.897,28.937 M36.58,22.67 C36.504,22.477 36.423,22.281 36.336,22.08 L36.739,21.159 L37.161,21.343 L36.58,22.67" fill="#777874"/>
    <path d="M61.565,33.529 C62.29,33.847 63.135,33.517 63.452,32.792 L64.588,30.195 C64.905,29.471 64.574,28.626 63.85,28.309 L61.565,33.529" fill="#44609D"/>
    <path d="M62.706,30.921 L53.084,26.71 L54.227,24.097 L63.849,28.308 L62.706,30.921" fill="#FFFFFE"/>
    <path d="M61.561,33.533 L51.941,29.322 L53.084,26.71 L62.706,30.921 L61.561,33.533" fill="#BFBFBA"/>
    <path d="M51.941,29.322 L54.227,24.097 L53.084,26.71 L54.272,27.23 L53.084,26.71 L51.941,29.322 M55.415,24.617 L54.227,24.097 L55.415,24.617" fill="#0D0F14"/>
    <path d="M54.272,27.23 L53.084,26.71 L54.227,24.097 L55.415,24.617 L54.272,27.23" fill="#C7C6C1"/>
    <path d="M53.128,29.842 L51.941,29.322 L53.084,26.71 L54.272,27.23 L53.128,29.842" fill="#959692"/>
    <path d="M49.222,30.094 C50.406,30.612 51.786,30.073 52.304,28.889 L54.159,24.651 C54.677,23.468 54.136,22.089 52.953,21.57 L49.222,30.094" fill="#44609D"/>
    <path d="M51.084,25.834 L37.749,19.998 L39.616,15.733 L52.951,21.57 L51.084,25.834" fill="#FFFFFE"/>
    <path d="M49.217,30.101 L35.882,24.264 L37.749,19.998 L51.084,25.834 L49.217,30.101" fill="#BFBFBA"/>
    <path d="M37.232,24.855 L35.882,24.264 L37.232,24.855" fill="#0D0F14"/>
    <path d="M37.237,24.857 L37.232,24.855 L37.237,24.857" fill="#0D0F12"/>
    <path d="M37.821,25.112 L37.237,24.857 L37.821,25.112" fill="#5E5F5B"/>
    <path d="M39.688,20.847 L37.749,19.998 L39.616,15.733 L41.555,16.581 L39.688,20.847" fill="#C7C6C1"/>
    <path d="M37.821,25.112 L37.237,24.857 L37.232,24.855 L35.882,24.264 L37.749,19.998 L39.688,20.847 L37.821,25.112" fill="#959692"/>
    <path d="M5.275,1.25 C4.779,1.034 3.633,2.559 2.714,4.659 C1.796,6.758 1.452,8.634 1.948,8.852 L5.275,1.25" fill="#6895C2"/>
    <path d="M63.414,32.878 C63.595,32.958 64.014,32.401 64.348,31.634 C64.684,30.868 64.81,30.183 64.628,30.104 L63.414,32.878" fill="#6895C2"/>
    <path d="M63.058,20.253 C63.783,20.57 64.545,20.429 64.76,19.938 L65.53,18.178 C65.745,17.686 65.332,17.031 64.607,16.714 L63.058,20.253" fill="#44609D"/>
    <path d="M54.985,12.502 C54.26,12.185 53.497,12.325 53.283,12.817 L52.512,14.577 C52.298,15.068 52.71,15.724 53.436,16.041 L54.985,12.502" fill="#6895C2"/>
    <path d="M63.83,18.484 L54.21,14.273 L54.985,12.502 L64.606,16.713 L63.83,18.484" fill="#FFFFFE"/>
    <path d="M63.056,20.256 L53.434,16.045 L54.209,14.273 L63.83,18.484 L63.056,20.256" fill="#BFBFBA"/>
    <path d="M12.53,0.334 C10.52,-0.545 8.177,0.371 7.297,2.381 L4.146,9.581 C3.266,11.591 4.182,13.934 6.193,14.814 L12.53,0.334" fill="#6895C2"/>
    <path d="M31.303,25.804 C33.314,26.684 35.657,25.768 36.537,23.758 L39.688,16.558 C40.568,14.548 39.651,12.205 37.641,11.324 L31.303,25.804" fill="#44609D"/>
    <path d="M34.472,18.564 L9.362,7.574 L12.53,0.334 L37.641,11.325 L34.472,18.564" fill="#FFFFFE"/>
    <path d="M31.303,25.804 L6.193,14.814 L9.362,7.574 L34.472,18.564 L31.303,25.804" fill="#BFBFBA"/>
    <path d="M1.944,8.861 L4.057,9.784 L7.387,2.176 L5.274,1.252 L1.944,8.861" fill="#FFFFFE"/>
    <path d="M6.193,14.814 L12.53,0.334 L9.362,7.574 L11.3,8.423 L9.362,7.574 L6.193,14.814 M14.469,1.183 L12.53,0.334 L14.469,1.183" fill="#0D0F14"/>
    <path d="M11.3,8.423 L9.362,7.574 L12.53,0.334 L14.469,1.183 L11.3,8.423" fill="#C7C6C1"/>
    <path d="M8.132,15.662 L6.193,14.814 L9.362,7.574 L11.3,8.423 L8.132,15.662" fill="#959692"/>
    <path d="M61.33,19.501 L59.85,18.853 L57.02,25.319 L58.5,25.968 L61.33,19.501" fill="#959692"/>
    <path d="M37.98,34.075 C37.98,34.841 37.358,35.464 36.59,35.464 C35.824,35.464 35.201,34.841 35.201,34.075 C35.201,33.307 35.824,32.685 36.59,32.685 C37.358,32.685 37.98,33.307 37.98,34.075" fill="#FFFFFE"/>
    <path d="M13.795,70 C13.795,67.553 11.811,65.569 9.365,65.569 L9.365,70 L13.795,70" fill="#44609D"/>
    <path d="M9.365,65.569 C6.917,65.569 4.934,67.553 4.934,70 L9.365,70 L9.365,65.569" fill="#6895C2"/>
    <path d="M41.022,70 C41.022,67.553 39.038,65.569 36.59,65.569 L36.59,70 L41.022,70" fill="#44609D"/>
    <path d="M36.59,65.569 C34.144,65.569 32.16,67.553 32.16,70 L36.59,70 L36.59,65.569" fill="#6895C2"/>
    <path d="M68.279,70 C68.279,67.553 66.296,65.569 63.849,65.569 L63.849,70 L68.279,70" fill="#44609D"/>
    <path d="M63.849,65.569 C61.401,65.569 59.418,67.553 59.418,70 L63.849,70 L63.849,65.569" fill="#6895C2"/>
  </g>
</svg>
