<?xml version="1.0" encoding="UTF-8"?>
<!DOCTYPE svg PUBLIC "-//W3C//DTD SVG 1.1//EN" "http://www.w3.org/Graphics/SVG/1.1/DTD/svg11.dtd">
<svg version="1.1" xmlns="http://www.w3.org/2000/svg" xmlns:xlink="http://www.w3.org/1999/xlink" x="0" y="0" width="70" height="70" viewBox="0, 0, 70, 70">
  <g id="Layer_1">
    <path d="M17.54,26.368 C17.54,12.937 27.918,1.953 41.089,0.938 C39.11,0.587 37.083,0.371 35.001,0.371 C15.877,0.371 0.371,15.874 0.371,35 C0.371,44.522 4.22,53.143 10.44,59.403 L25.23,44.615 C20.489,39.979 17.54,33.522 17.54,26.368" fill="#725E99"/>
    <path d="M17.54,26.368 C17.54,33.522 20.489,39.979 25.23,44.615 L59.369,10.474 C59.139,10.246 58.923,10.008 58.688,9.786 L58.639,9.743 C56.911,8.123 55.011,6.682 52.974,5.442 L52.642,5.24 C51.984,4.849 51.315,4.476 50.63,4.127 L50.576,4.103 C48.445,3.026 46.185,2.17 43.829,1.549 C43.673,1.509 43.518,1.468 43.362,1.43 C42.613,1.244 41.858,1.076 41.089,0.938 C27.918,1.953 17.54,12.937 17.54,26.368" fill="#AF9CBF"/>
    <path d="M35.001,69.629 C54.126,69.629 69.629,54.125 69.629,35 C69.629,32.13 69.242,29.356 68.584,26.689 C68.409,40.641 57.062,51.899 43.07,51.899 C36.123,51.899 29.833,49.116 25.23,44.615 L10.44,59.403 C16.712,65.717 25.399,69.629 35.001,69.629" fill="#504384"/>
    <path d="M25.23,44.615 C29.833,49.116 36.123,51.899 43.07,51.899 C57.062,51.899 68.409,40.641 68.584,26.689 L68.583,26.686 C67.171,20.967 64.339,15.812 60.487,11.613 L60.353,11.467 C60.036,11.125 59.699,10.803 59.369,10.474 L25.23,44.615" fill="#725E99"/>
    <path d="M14.16,31.926 C11.268,31.926 8.924,29.582 8.924,26.689 C8.924,23.797 11.268,21.453 14.16,21.453 C15.562,21.453 16.833,22.002 17.774,22.898 C17.619,24.032 17.54,25.191 17.54,26.368 C17.54,27.741 17.648,29.087 17.856,30.4 C16.909,31.344 15.603,31.926 14.16,31.926" fill="#5E4D8E"/>
    <path d="M17.856,30.4 C17.648,29.087 17.54,27.741 17.54,26.368 C17.54,25.191 17.619,24.032 17.774,22.898 C18.774,23.852 19.398,25.198 19.398,26.689 C19.398,28.14 18.809,29.451 17.856,30.4" fill="#8F7BAC"/>
    <path d="M50.509,35.124 C47.617,35.124 45.271,32.78 45.271,29.888 C45.271,26.995 47.617,24.65 50.509,24.65 C53.401,24.65 55.746,26.995 55.746,29.888 C55.746,32.78 53.401,35.124 50.509,35.124" fill="#5E4D8E"/>
    <path d="M56.127,23.486 C54.232,23.486 52.696,21.95 52.696,20.054 C52.696,18.159 54.232,16.623 56.127,16.623 C58.023,16.623 59.56,18.159 59.56,20.054 C59.56,21.95 58.023,23.486 56.127,23.486" fill="#534383"/>
    <path d="M30.794,24.884 C28.898,24.884 27.362,23.348 27.362,21.453 C27.362,19.558 28.898,18.02 30.794,18.02 C32.689,18.02 34.226,19.558 34.226,21.453 C34.226,23.348 32.689,24.884 30.794,24.884" fill="#C7B8D0"/>
    <path d="M40.057,17.339 C37.277,17.339 35.022,15.084 35.022,12.304 C35.022,9.523 37.277,7.27 40.057,7.27 C42.838,7.27 45.091,9.523 45.091,12.304 C45.091,15.084 42.838,17.339 40.057,17.339" fill="#E0D6E2"/>
    <path d="M46.906,57.592 C44.257,57.592 42.108,55.443 42.108,52.794 C42.108,52.482 42.137,52.178 42.193,51.884 C42.485,51.895 42.777,51.899 43.07,51.899 C45.902,51.899 48.624,51.438 51.169,50.587 C51.512,51.248 51.705,51.998 51.705,52.794 C51.705,55.443 49.557,57.592 46.906,57.592" fill="#3C3267"/>
    <path d="M43.07,51.899 C42.777,51.899 42.485,51.895 42.193,51.884 C42.619,49.669 44.568,47.995 46.906,47.995 C48.762,47.995 50.37,49.047 51.169,50.587 C48.624,51.438 45.902,51.899 43.07,51.899" fill="#534383"/>
    <path d="M12.613,57.23 C11.268,55.856 10.44,53.974 10.44,51.899 C10.44,47.687 13.855,44.272 18.067,44.272 C20.141,44.272 22.023,45.1 23.398,46.445 L12.613,57.23" fill="#534383"/>
    <path d="M18.067,59.526 C15.929,59.526 13.998,58.646 12.613,57.23 L23.398,46.445 C24.814,47.83 25.694,49.763 25.694,51.899 C25.694,56.111 22.279,59.526 18.067,59.526" fill="#3C3267"/>
  </g>
</svg>
