<?xml version="1.0" encoding="UTF-8"?>
<!DOCTYPE svg PUBLIC "-//W3C//DTD SVG 1.1//EN" "http://www.w3.org/Graphics/SVG/1.1/DTD/svg11.dtd">
<svg version="1.1" xmlns="http://www.w3.org/2000/svg" xmlns:xlink="http://www.w3.org/1999/xlink" x="0" y="0" width="70" height="70" viewBox="0, 0, 70, 70">
  <g id="Layer_1">
    <path d="M30.915,65.679 L29.411,65.679 L29.411,54.773 L32.565,54.773 L30.915,65.679" fill="#19845F"/>
    <path d="M32.094,66.942 C32.094,65.086 30.589,63.581 28.733,63.581 L28.733,66.942 L32.094,66.942" fill="#1E7151"/>
    <path d="M28.733,63.581 C26.877,63.581 25.372,65.086 25.372,66.942 L28.733,66.942 L28.733,63.581" fill="#3CAE73"/>
    <path d="M33.499,42.031 L35,42.031 L35,37.124 L33.674,37.124 L33.499,42.031" fill="#19845F"/>
    <path d="M35,37.921 C30.238,37.921 27.148,36.132 25.475,32.217 C23.801,28.301 20.326,19.42 20.326,13.242 C20.326,7.063 27.019,3.058 35,3.058 C35,14.982 35,37.921 35,37.921" fill="#3CAE73"/>
    <path d="M35,41.033 C30.488,41.033 26.83,46.341 26.83,50.853 C26.83,55.367 30.488,57.375 35,57.375 L35,41.033" fill="#3CAE73"/>
    <path d="M26.892,16.372 C25.538,15.377 21.993,14.278 20.397,14.767 C20.742,19.138 22.438,24.432 23.936,28.393 C27.012,28.22 32.213,27.372 32.213,23.689 C32.213,20.393 30.088,18.719 26.892,16.372" fill="#25282C"/>
    <path d="M24.996,54.648 C24.889,54.648 24.777,54.643 24.66,54.632 C24.359,54.604 24.136,54.336 24.164,54.033 C24.193,53.731 24.465,53.509 24.763,53.537 C25.982,53.657 26.322,52.797 26.405,52.429 L23.407,46.615 C23.338,46.482 23.327,46.326 23.375,46.184 C23.425,46.042 23.529,45.926 23.666,45.864 L31.536,42.263 C31.813,42.136 32.138,42.258 32.265,42.535 C32.391,42.81 32.269,43.137 31.994,43.263 L24.648,46.624 L27.466,52.088 C27.516,52.183 27.536,52.292 27.524,52.399 C27.436,53.207 26.791,54.648 24.996,54.648" fill="#3CAE73"/>
    <path d="M39.085,65.679 L40.59,65.679 L40.59,54.773 L37.436,54.773 L39.085,65.679" fill="#1E7151"/>
    <path d="M37.906,66.942 C37.906,65.086 39.411,63.581 41.267,63.581 L41.267,66.942 L37.906,66.942" fill="#3CAE73"/>
    <path d="M41.267,63.581 C43.123,63.581 44.628,65.086 44.628,66.942 L41.267,66.942 L41.267,63.581" fill="#19845F"/>
    <path d="M36.501,42.031 L35,42.031 L35,37.124 L36.327,37.124 L36.501,42.031" fill="#1E7151"/>
    <path d="M35,37.921 C39.762,37.921 42.852,36.132 44.526,32.217 C46.199,28.301 49.674,19.42 49.674,13.242 C49.674,7.063 42.981,3.058 35,3.058 C35,14.982 35,37.921 35,37.921" fill="#19845F"/>
    <path d="M35,41.033 C39.513,41.033 43.171,46.341 43.171,50.853 C43.171,55.367 39.513,57.375 35,57.375 L35,41.033" fill="#19845F"/>
    <path d="M43.108,16.372 C44.462,15.377 48.008,14.278 49.604,14.767 C49.258,19.138 47.563,24.432 46.064,28.393 C42.988,28.22 37.788,27.372 37.788,23.689 C37.788,20.393 39.912,18.719 43.108,16.372" fill="#25282C"/>
    <path d="M45.004,54.648 C45.112,54.648 45.224,54.643 45.34,54.632 C45.642,54.604 45.864,54.336 45.837,54.033 C45.808,53.731 45.535,53.509 45.238,53.537 C44.018,53.657 43.679,52.797 43.595,52.429 L46.594,46.615 C46.662,46.482 46.674,46.326 46.625,46.184 C46.576,46.042 46.471,45.926 46.334,45.864 L38.464,42.263 C38.187,42.136 37.862,42.258 37.735,42.535 C37.609,42.81 37.731,43.137 38.007,43.263 L45.352,46.624 L42.534,52.088 C42.485,52.183 42.464,52.292 42.476,52.399 C42.564,53.207 43.209,54.648 45.004,54.648" fill="#19845F"/>
    <path d="M35,35.037 C33.164,35.037 31.876,34.046 31.271,33.455 C31.016,33.206 31.011,32.798 31.26,32.542 C31.51,32.287 31.919,32.283 32.173,32.532 C32.637,32.985 33.622,33.746 35,33.746 C36.72,33.746 37.557,32.862 37.773,32.591 C37.996,32.313 38.402,32.267 38.681,32.489 C38.96,32.71 39.006,33.117 38.783,33.396 C37.965,34.423 36.55,35.037 35,35.037" fill="#25282C"/>
    <path d="M32.565,47.658 C31.762,47.658 31.112,47.007 31.112,46.205 C31.112,45.402 31.762,44.752 32.565,44.752 C33.367,44.752 34.017,45.402 34.017,46.205 C34.017,47.007 33.367,47.658 32.565,47.658" fill="#76C095"/>
    <path d="M31.704,53.791 C30.437,53.791 29.411,52.764 29.411,51.497 C29.411,50.231 30.437,49.204 31.704,49.204 C32.971,49.204 33.997,50.231 33.997,51.497 C33.997,52.764 32.971,53.791 31.704,53.791" fill="#76C095"/>
    <path d="M27.83,19.739 C27.83,20.977 26.826,21.982 25.588,21.982 C24.349,21.982 23.346,20.977 23.346,19.739 C23.346,18.501 24.349,17.497 25.588,17.497 C26.826,17.497 27.83,18.501 27.83,19.739" fill="#FFFFFE"/>
    <path d="M29.411,23.735 C29.411,24.218 29.02,24.608 28.537,24.608 C28.054,24.608 27.663,24.218 27.663,23.735 C27.663,23.252 28.054,22.862 28.537,22.862 C29.02,22.862 29.411,23.252 29.411,23.735" fill="#FFFFFE"/>
    <path d="M46.138,19.739 C46.138,20.565 45.468,21.236 44.642,21.236 C43.816,21.236 43.146,20.565 43.146,19.739 C43.146,18.913 43.816,18.243 44.642,18.243 C45.468,18.243 46.138,18.913 46.138,19.739" fill="#FFFFFE"/>
  </g>
</svg>
