<?xml version="1.0" encoding="UTF-8"?>
<!DOCTYPE svg PUBLIC "-//W3C//DTD SVG 1.1//EN" "http://www.w3.org/Graphics/SVG/1.1/DTD/svg11.dtd">
<svg version="1.1" xmlns="http://www.w3.org/2000/svg" xmlns:xlink="http://www.w3.org/1999/xlink" x="0" y="0" width="75" height="75" viewBox="0, 0, 75, 75">
  <g id="Layer_1">
    <path d="M19.825,28.009 C19.825,14.039 30.619,2.614 44.318,1.56 C42.258,1.194 40.15,0.97 37.985,0.97 C18.095,0.97 1.969,17.094 1.969,36.985 C1.969,46.888 5.972,55.855 12.441,62.366 L27.822,46.984 C22.892,42.164 19.825,35.448 19.825,28.009" fill="#DF8333"/>
    <path d="M19.825,28.009 C19.825,35.448 22.892,42.164 27.822,46.984 L63.329,11.478 C63.09,11.241 62.864,10.992 62.619,10.762 L62.57,10.717 C60.772,9.032 58.796,7.534 56.678,6.244 C56.563,6.174 56.448,6.103 56.332,6.034 C55.649,5.627 54.952,5.238 54.24,4.877 L54.184,4.85 C51.968,3.731 49.617,2.841 47.166,2.196 C47.004,2.153 46.843,2.111 46.681,2.071 C45.902,1.878 45.117,1.702 44.318,1.56 C30.619,2.614 19.825,14.039 19.825,28.009" fill="#F0A746"/>
    <path d="M37.985,73 C57.875,73 74,56.875 74,36.985 C74,34 73.597,31.116 72.912,28.342 C72.731,42.851 60.929,54.561 46.377,54.561 C39.152,54.561 32.609,51.666 27.822,46.984 L12.441,62.366 C18.965,68.931 27.999,73 37.985,73" fill="#BA642E"/>
    <path d="M27.822,46.984 C32.609,51.666 39.152,54.561 46.377,54.561 C60.929,54.561 72.731,42.851 72.912,28.342 L72.911,28.338 C71.443,22.39 68.498,17.03 64.491,12.662 L64.353,12.51 C64.023,12.154 63.672,11.819 63.329,11.478 L27.822,46.984" fill="#DF8333"/>
    <path d="M40.842,18.826 C40.842,20.53 39.461,21.911 37.757,21.911 L14.146,21.911 C12.442,21.911 11.06,20.53 11.06,18.826 C11.06,17.122 12.442,15.74 14.146,15.74 L37.757,15.74 C39.461,15.74 40.842,17.122 40.842,18.826" fill="#BA642E"/>
    <path d="M35.237,57.406 C35.237,58.711 34.179,59.768 32.875,59.768 L14.803,59.768 C13.498,59.768 12.441,58.711 12.441,57.406 C12.441,56.102 13.498,55.045 14.803,55.045 L32.875,55.045 C34.179,55.045 35.237,56.102 35.237,57.406" fill="#DF8333"/>
    <path d="M30.948,32.823 C30.948,34.527 29.567,35.908 27.863,35.908 L9.576,35.908 C7.872,35.908 6.491,34.527 6.491,32.823 C6.491,31.119 7.872,29.737 9.576,29.737 L27.863,29.737 C29.567,29.737 30.948,31.119 30.948,32.823" fill="#F0A746"/>
    <path d="M50.575,28.342 C50.575,29.698 49.476,30.798 48.119,30.798 L33.565,30.798 C32.209,30.798 31.109,29.698 31.109,28.342 C31.109,26.986 32.209,25.886 33.565,25.886 L48.119,25.886 C49.476,25.886 50.575,26.986 50.575,28.342" fill="#DF8333"/>
    <path d="M71.567,42.777 C71.567,43.99 70.584,44.974 69.371,44.974 L52.564,44.974 C51.351,44.974 50.367,43.99 50.367,42.777 C50.367,41.564 51.351,40.581 52.564,40.581 L69.371,40.581 C70.584,40.581 71.567,41.564 71.567,42.777" fill="#BA642E"/>
  </g>
</svg>
